# xmcd CD database file
#
# Track frame offsets:
#	150
#	51690
#	80873
#	105352
#	187489
#	206733
#	227746
#
# Disc length: 3250 seconds
#
# Revision: 2
# Processed by: cddbd v1.4PL0 Copyright (c) Steve Scherf et al.
# Submitted via: CDex 1.51
#
DISCID=6a0cb007
DTITLE=Szakcsi-Koszegi Duo - Journey in Time
DYEAR=1997
DGENRE=Jazz
TTITLE0=Roots in Hungary
TTITLE1=Flying
TTITLE2=Sweet Song
TTITLE3=Journey in Time
TTITLE4=Blues for Two
TTITLE5=Apologies
TTITLE6=Happy New Orleans
EXTD=YEAR: 1997
EXTT0=
EXTT1=
EXTT2=
EXTT3=
EXTT4=
EXTT5=
EXTT6=
PLAYORDER=
